<svg xmlns="http://www.w3.org/2000/svg" width="320" height="680" viewBox="0 0 320 680" role="img" aria-label="Önizleme: borçsuz olma tarihi ekranı">
  <defs>
    <linearGradient id="r1" x1="0.15" y1="0.9" x2="0.9" y2="0.1">
      <stop offset="0" stop-color="#7FA0C8"/><stop offset="0.55" stop-color="#C6D2E2"/><stop offset="1" stop-color="#E8D9B8"/>
    </linearGradient>
  </defs>
  <rect width="320" height="680" fill="#0A1220"/>
  <g fill="#7FA0C8" opacity="0.9">
    <circle cx="30" cy="42" r="9" fill="none" stroke="#7FA0C8" stroke-width="3" stroke-dasharray="40 12" transform="rotate(-70 30 42)"/>
  </g>
  <text x="48" y="48" font-family="-apple-system,Segoe UI,Roboto,sans-serif" font-size="17" font-weight="700" fill="#DCE7F4" letter-spacing="-0.3">Sıfırla</text>
  <!-- ilerleme halkası -->
  <circle cx="160" cy="250" r="96" fill="none" stroke="#182740" stroke-width="9"/>
  <path d="M243 298 A96 96 0 1 1 196 166" fill="none" stroke="url(#r1)" stroke-width="15" stroke-linecap="round"/>
  <text x="160" y="258" text-anchor="middle" font-family="-apple-system,Segoe UI,Roboto,sans-serif" font-size="46" font-weight="700" fill="#DCE7F4" letter-spacing="-1">%40</text>
  <text x="160" y="286" text-anchor="middle" font-family="-apple-system,Segoe UI,Roboto,sans-serif" font-size="12" fill="#AEC0D6">borçsuz olma: Eylül 2028</text>
  <!-- istatistik satırı -->
  <text x="96" y="392" text-anchor="middle" font-family="-apple-system,sans-serif" font-size="11" fill="#AEC0D6">Toplam bakiye</text>
  <text x="96" y="416" text-anchor="middle" font-family="-apple-system,sans-serif" font-size="18" font-weight="700" fill="#DCE7F4">₺43.000</text>
  <text x="224" y="392" text-anchor="middle" font-family="-apple-system,sans-serif" font-size="11" fill="#AEC0D6">Bu ay ödenecek</text>
  <text x="224" y="416" text-anchor="middle" font-family="-apple-system,sans-serif" font-size="18" font-weight="700" fill="#DCE7F4">₺2.700</text>
  <!-- alt kart iskeleti -->
  <rect x="24" y="470" width="272" height="150" rx="16" fill="#111C2E" stroke="#243756"/>
  <rect x="44" y="494" width="150" height="12" rx="6" fill="#243756"/>
  <rect x="44" y="522" width="230" height="9" rx="4.5" fill="#182740"/>
  <rect x="44" y="540" width="200" height="9" rx="4.5" fill="#182740"/>
  <rect x="44" y="576" width="72" height="30" rx="8" fill="#182740"/>
  <rect x="128" y="576" width="72" height="30" rx="8" fill="#182740"/>
</svg>
