<svg xmlns="http://www.w3.org/2000/svg" width="320" height="680" viewBox="0 0 320 680" role="img" aria-label="Önizleme: bu ay ne yapmalısın ekranı">
  <rect width="320" height="680" fill="#0A1220"/>
  <text x="24" y="56" font-family="-apple-system,Segoe UI,Roboto,sans-serif" font-size="17" font-weight="700" fill="#DCE7F4">Bu ay ne yapmalısın</text>
  <!-- görev listesi -->
  <g font-family="-apple-system,sans-serif">
    <rect x="24" y="84" width="272" height="72" rx="14" fill="#111C2E" stroke="#243756"/>
    <circle cx="56" cy="120" r="14" fill="none" stroke="#7FA0C8" stroke-width="3"/>
    <path d="M50 120 l4 4 8 -9" fill="none" stroke="#7FA0C8" stroke-width="3" stroke-linecap="round" stroke-linejoin="round"/>
    <rect x="84" y="106" width="150" height="11" rx="5.5" fill="#243756"/>
    <rect x="84" y="128" width="90" height="9" rx="4.5" fill="#182740"/>
    <text x="256" y="126" text-anchor="end" font-size="15" font-weight="700" fill="#E8D9B8">₺1.500</text>

    <rect x="24" y="168" width="272" height="72" rx="14" fill="#111C2E" stroke="#243756"/>
    <circle cx="56" cy="204" r="14" fill="none" stroke="#3A5C8C" stroke-width="3"/>
    <rect x="84" y="190" width="130" height="11" rx="5.5" fill="#243756"/>
    <rect x="84" y="212" width="76" height="9" rx="4.5" fill="#182740"/>
    <text x="256" y="210" text-anchor="end" font-size="15" font-weight="700" fill="#DCE7F4">₺1.200</text>

    <rect x="24" y="252" width="272" height="72" rx="14" fill="#111C2E" stroke="#243756"/>
    <circle cx="56" cy="288" r="14" fill="none" stroke="#3A5C8C" stroke-width="3"/>
    <rect x="84" y="274" width="110" height="11" rx="5.5" fill="#243756"/>
    <rect x="84" y="296" width="64" height="9" rx="4.5" fill="#182740"/>
    <text x="256" y="294" text-anchor="end" font-size="15" font-weight="700" fill="#DCE7F4">₺900</text>
  </g>
  <!-- ısı haritası -->
  <rect x="24" y="344" width="272" height="150" rx="16" fill="#111C2E" stroke="#243756"/>
  <text x="44" y="372" font-family="-apple-system,sans-serif" font-size="12" fill="#AEC0D6">Ödeme serisi</text>
  <g>
    <rect x="44" y="388" width="30" height="30" rx="6" fill="#16283C"/>
    <rect x="82" y="388" width="30" height="30" rx="6" fill="#1f3a57"/>
    <rect x="120" y="388" width="30" height="30" rx="6" fill="#33628f"/>
    <rect x="158" y="388" width="30" height="30" rx="6" fill="#4f83b8"/>
    <rect x="196" y="388" width="30" height="30" rx="6" fill="#7FA0C8"/>
    <rect x="234" y="388" width="30" height="30" rx="6" fill="#182740" stroke="#243756"/>
  </g>
  <rect x="44" y="446" width="150" height="10" rx="5" fill="#243756"/>
  <rect x="44" y="466" width="210" height="8" rx="4" fill="#182740"/>
  <rect x="24" y="510" width="272" height="110" rx="16" fill="#111C2E" stroke="#243756"/>
  <rect x="44" y="534" width="130" height="11" rx="5.5" fill="#243756"/>
  <rect x="44" y="560" width="210" height="9" rx="4.5" fill="#182740"/>
  <rect x="44" y="578" width="180" height="9" rx="4.5" fill="#182740"/>
</svg>
